{
    "accessors": [
        {
            "bufferView": 3,
            "byteOffset": 0,
            "componentType": 5123,
            "count": 4608,
            "max": [
                4607
            ],
            "min": [
                0
            ],
            "name": "accessor_buffer_model_New Qlone_20190126_122428663_0",
            "type": "SCALAR"
        },
        {
            "bufferView": 0,
            "byteOffset": 0,
            "componentType": 5126,
            "count": 4608,
            "max": [
                7.851749897003174,
                8.385210037231445,
                -8.654450416564941
            ],
            "min": [
                -7.963099956512451,
                -7.894239902496338,
                -73.76748657226562
            ],
            "name": "accessor_buffer_model_New Qlone_20190126_122428663_POSITION_0",
            "type": "VEC3"
        },
        {
            "bufferView": 2,
            "byteOffset": 0,
            "componentType": 5126,
            "count": 4608,
            "max": [
                0.11957000195980072,
                0.3131200075149536
            ],
            "min": [
                0.00023999999393709004,
                0.0017200112342834473
            ],
            "name": "accessor_buffer_model_New Qlone_20190126_122428663_TEXCOORD_0_0",
            "type": "VEC2"
        },
        {
            "bufferView": 1,
            "byteOffset": 0,
            "componentType": 5126,
            "count": 4608,
            "max": [
                0.9999897480010986,
                0.9986112713813782,
                0.9529998302459717
            ],
            "min": [
                -0.999890148639679,
                -0.9999526143074036,
                -0.9999657273292542
            ],
            "name": "accessor_buffer_model_New Qlone_20190126_122428663_NORMAL_0",
            "type": "VEC3"
        }
    ],
    "asset": {
        "copyright": "",
        "generator": "blendergltf v1.2.0",
        "version": "2.0"
    },
    "bufferViews": [
        {
            "buffer": 0,
            "byteLength": 55296,
            "byteOffset": 0,
            "byteStride": 12,
            "name": "bufferView_buffer_model_New Qlone_20190126_122428663_POSITION_0",
            "target": 34962
        },
        {
            "buffer": 0,
            "byteLength": 55296,
            "byteOffset": 55296,
            "byteStride": 12,
            "name": "bufferView_buffer_model_New Qlone_20190126_122428663_NORMAL_0",
            "target": 34962
        },
        {
            "buffer": 0,
            "byteLength": 36864,
            "byteOffset": 110592,
            "byteStride": 8,
            "name": "bufferView_buffer_model_New Qlone_20190126_122428663_TEXCOORD_0_0",
            "target": 34962
        },
        {
            "buffer": 0,
            "byteLength": 9220,
            "byteOffset": 147456,
            "name": "bufferView_buffer_model_New Qlone_20190126_122428663_0",
            "target": 34963
        }
    ],
    "buffers": [
        {
            "byteLength": 156676,
            "name": "buffer_flasche01",
            "uri": "data:application/octet-stream;base64,"
        }
    ],
    "cameras": [
        {
            "name": "Camera",
            "perspective": {
                "aspectRatio": 1.703595982340029,
                "yfov": 0.5033799409866333,
                "zfar": 100.0,
                "znear": 0.10000000149011612
            },
            "type": "perspective"
        }
    ],
    "images": [
        {
            "name": "texture.jpg",
            "uri": "texture.jpg.jpg"
        }
    ],
    "materials": [
        {
            "alphaMode": "OPAQUE",
            "doubleSided": false,
            "emissiveFactor": [
                0.0,
                0.0,
                0.0
            ],
            "name": "material0",
            "pbrMetallicRoughness": {
                "baseColorFactor": [
                    1.0,
                    1.0,
                    1.0,
                    1.0
                ],
                "baseColorTexture": {
                    "index": 1,
                    "texCoord": 0
                },
                "metallicFactor": 0.0,
                "roughnessFactor": 1.0
            }
        }
    ],
    "meshes": [
        {
            "name": "model_New Qlone_20190126_122428663",
            "primitives": [
                {
                    "attributes": {
                        "NORMAL": 3,
                        "POSITION": 1,
                        "TEXCOORD_0": 2
                    },
                    "indices": 0,
                    "material": 0,
                    "mode": 4
                }
            ]
        }
    ],
    "nodes": [
        {
            "camera": 0,
            "name": "Camera",
            "rotation": [
                -0.09062843769788742,
                -0.8937962651252747,
                -0.2099730223417282,
                0.38578000664711
            ],
            "scale": [
                1.0,
                1.0,
                1.0
            ],
            "translation": [
                -7.481131553649902,
                5.34366512298584,
                -6.5076398849487305
            ]
        },
        {
            "mesh": 0,
            "name": "model_New Qlone_20190126_122428663",
            "rotation": [
                -0.7071068286895752,
                0.0,
                0.0,
                0.7071067094802856
            ],
            "scale": [
                1.0,
                1.0,
                1.0
            ],
            "translation": [
                0.0,
                73.74951171875,
                0.0
            ]
        }
    ],
    "samplers": [
        {
            "magFilter": 9729,
            "minFilter": 9987,
            "name": "Ka",
            "wrapS": 10497,
            "wrapT": 10497
        },
        {
            "magFilter": 9729,
            "minFilter": 9987,
            "name": "Kd",
            "wrapS": 10497,
            "wrapT": 10497
        }
    ],
    "scene": 0,
    "scenes": [
        {
            "extras": {
                "active_camera": 0,
                "background_color": [
                    0.05087608844041824,
                    0.05087608844041824,
                    0.05087608844041824
                ],
                "frames_per_second": 24
            },
            "name": "Scene",
            "nodes": [
                1,
                0
            ]
        }
    ],
    "textures": [
        {
            "name": "Ka",
            "sampler": 0,
            "source": 0
        },
        {
            "name": "Kd",
            "sampler": 1,
            "source": 0
        }
    ]
}
