{
    "accessors": [
        {
            "bufferView": 3,
            "byteOffset": 0,
            "componentType": 5123,
            "count": 2544,
            "max": [
                2353
            ],
            "min": [
                0
            ],
            "name": "accessor_buffer_BigTree.006_0",
            "type": "SCALAR"
        },
        {
            "bufferView": 4,
            "byteOffset": 16,
            "componentType": 5126,
            "count": 2354,
            "max": [
                1.1218249797821045,
                0.32440993189811707,
                0.0,
                0.0
            ],
            "min": [
                0.6755900382995605,
                0.0,
                0.0,
                0.0
            ],
            "name": "accessor_buffer_BigTree.006_skin_1",
            "type": "VEC4"
        },
        {
            "bufferView": 9,
            "byteOffset": 0,
            "componentType": 5126,
            "count": 160,
            "max": [
                1.0000001192092896,
                1.000000238418579,
                1.0000001192092896
            ],
            "min": [
                1.0,
                1.0,
                1.0
            ],
            "name": "accessor_buffer_Bone.001_Armature_tree01_2",
            "type": "VEC3"
        },
        {
            "bufferView": 7,
            "byteOffset": 0,
            "componentType": 5126,
            "count": 160,
            "max": [
                0.0,
                1.0,
                0.0
            ],
            "min": [
                0.0,
                1.0,
                0.0
            ],
            "name": "accessor_buffer_Bone.001_Armature_tree01_0",
            "type": "VEC3"
        },
        {
            "bufferView": 2,
            "byteOffset": 0,
            "componentType": 5126,
            "count": 2354,
            "max": [
                0.814020037651062,
                0.8923097550868988
            ],
            "min": [
                0.27195578813552856,
                0.4950447082519531
            ],
            "name": "accessor_buffer_BigTree.006_TEXCOORD_0_0",
            "type": "VEC2"
        },
        {
            "bufferView": 6,
            "byteOffset": 0,
            "componentType": 5126,
            "count": 160,
            "max": [
                6.625000000000012
            ],
            "min": [
                0
            ],
            "name": "accessor_buffer_Armature_tree01_time_0",
            "type": "SCALAR"
        },
        {
            "bufferView": 0,
            "byteOffset": 0,
            "componentType": 5126,
            "count": 2354,
            "max": [
                17.675996780395508,
                34.039554595947266,
                17.3790225982666
            ],
            "min": [
                -13.595165252685547,
                -0.32967543601989746,
                -12.971870422363281
            ],
            "name": "accessor_buffer_BigTree.006_POSITION_0",
            "type": "VEC3"
        },
        {
            "bufferView": 8,
            "byteOffset": 0,
            "componentType": 5126,
            "count": 160,
            "max": [
                -0.0043916902504861355,
                0.707110583782196,
                0.0043917386792600155,
                0.7070894241333008
            ],
            "min": [
                -0.024576669558882713,
                0.7069340348243713,
                -0.01579703390598297,
                0.7066758275032043
            ],
            "name": "accessor_buffer_Bone.001_Armature_tree01_1",
            "type": "VEC4"
        },
        {
            "bufferView": 1,
            "byteOffset": 0,
            "componentType": 5126,
            "count": 2354,
            "max": [
                0.9969663619995117,
                0.9990717172622681,
                0.9974322319030762
            ],
            "min": [
                -0.9973388314247131,
                -0.9979979395866394,
                -0.9959176778793335
            ],
            "name": "accessor_buffer_BigTree.006_NORMAL_0",
            "type": "VEC3"
        },
        {
            "bufferView": 5,
            "byteOffset": 0,
            "componentType": 5126,
            "count": 2,
            "max": [
                3.5023363125219475e-06,
                0.004164361394941807,
                2.93090973713106e-08,
                0.0,
                5.5713336166718364e-08,
                0.3352569341659546,
                0.004164361394941807,
                0.0,
                0.3352569043636322,
                -5.462028340730285e-08,
                3.5013795240956824e-06,
                0.0,
                0.057523805648088455,
                -0.05220907926559448,
                0.04444989562034607,
                1.0
            ],
            "min": [
                -0.3352569341659546,
                -2.127156741387982e-22,
                -0.3352310359477997,
                0.0,
                -4.7750580311372356e-15,
                0.3352310061454773,
                -5.462028340730285e-08,
                0.0,
                -2.93090973713106e-08,
                -9.937239298096756e-08,
                -0.3352569341659546,
                0.0,
                0.04257776215672493,
                -1.0528422594070435,
                -0.042578376829624176,
                1.0
            ],
            "name": "accessor_buffer_IBM_BigTree.006_skin_0",
            "type": "MAT4"
        },
        {
            "bufferView": 4,
            "byteOffset": 0,
            "componentType": 5121,
            "count": 2354,
            "max": [
                1,
                1,
                0,
                0
            ],
            "min": [
                0,
                0,
                0,
                0
            ],
            "name": "accessor_buffer_BigTree.006_skin_0",
            "type": "VEC4"
        }
    ],
    "animations": [
        {
            "channels": [
                {
                    "sampler": 0,
                    "target": {
                        "node": 5,
                        "path": "translation"
                    }
                },
                {
                    "sampler": 1,
                    "target": {
                        "node": 5,
                        "path": "rotation"
                    }
                },
                {
                    "sampler": 2,
                    "target": {
                        "node": 5,
                        "path": "scale"
                    }
                }
            ],
            "name": "tree01",
            "samplers": [
                {
                    "input": 5,
                    "interpolation": "LINEAR",
                    "output": 3
                },
                {
                    "input": 5,
                    "interpolation": "LINEAR",
                    "output": 7
                },
                {
                    "input": 5,
                    "interpolation": "LINEAR",
                    "output": 2
                }
            ]
        }
    ],
    "asset": {
        "copyright": "",
        "generator": "blendergltf v1.2.0",
        "version": "2.0"
    },
    "bufferViews": [
        {
            "buffer": 0,
            "byteLength": 28248,
            "byteOffset": 0,
            "byteStride": 12,
            "name": "bufferView_buffer_BigTree.006_POSITION_0",
            "target": 34962
        },
        {
            "buffer": 0,
            "byteLength": 28248,
            "byteOffset": 28248,
            "byteStride": 12,
            "name": "bufferView_buffer_BigTree.006_NORMAL_0",
            "target": 34962
        },
        {
            "buffer": 0,
            "byteLength": 18832,
            "byteOffset": 56496,
            "byteStride": 8,
            "name": "bufferView_buffer_BigTree.006_TEXCOORD_0_0",
            "target": 34962
        },
        {
            "buffer": 0,
            "byteLength": 5092,
            "byteOffset": 75328,
            "name": "bufferView_buffer_BigTree.006_0",
            "target": 34963
        },
        {
            "buffer": 0,
            "byteLength": 75328,
            "byteOffset": 80420,
            "byteStride": 32,
            "name": "bufferView_buffer_BigTree.006_skin_0",
            "target": 34962
        },
        {
            "buffer": 0,
            "byteLength": 128,
            "byteOffset": 155748,
            "byteStride": 64,
            "name": "bufferView_buffer_IBM_BigTree.006_skin_0"
        },
        {
            "buffer": 0,
            "byteLength": 640,
            "byteOffset": 155876,
            "byteStride": 4,
            "name": "bufferView_buffer_Armature_tree01_time_0"
        },
        {
            "buffer": 0,
            "byteLength": 1920,
            "byteOffset": 156516,
            "byteStride": 12,
            "name": "bufferView_buffer_Bone.001_Armature_tree01_0"
        },
        {
            "buffer": 0,
            "byteLength": 2560,
            "byteOffset": 158436,
            "byteStride": 16,
            "name": "bufferView_buffer_Bone.001_Armature_tree01_1"
        },
        {
            "buffer": 0,
            "byteLength": 1920,
            "byteOffset": 160996,
            "byteStride": 12,
            "name": "bufferView_buffer_Bone.001_Armature_tree01_2"
        }
    ],
    "buffers": [
        {
            "byteLength": 162916,
            "name": "buffer_tree1",
            "uri": "data:application/octet-stream;base64,"
        }
    ],
    "cameras": [
        {
            "name": "Camera",
            "perspective": {
                "aspectRatio": 1.703595982340029,
                "yfov": 0.5033799409866333,
                "zfar": 100.0,
                "znear": 0.10000000149011612
            },
            "type": "perspective"
        }
    ],
    "images": [
        {
            "name": "ColorAtlas.png",
            "uri": "ColorAtlas.png.png"
        }
    ],
    "materials": [
        {
            "alphaMode": "OPAQUE",
            "doubleSided": false,
            "emissiveFactor": [
                0.0,
                0.0,
                0.0
            ],
            "name": "ColorAtlas.001",
            "pbrMetallicRoughness": {
                "baseColorFactor": [
                    0.800000011920929,
                    0.800000011920929,
                    0.800000011920929,
                    1.0
                ],
                "baseColorTexture": {
                    "index": 0,
                    "texCoord": 0
                },
                "metallicFactor": 0.0,
                "roughnessFactor": 1.0
            }
        }
    ],
    "meshes": [
        {
            "name": "BigTree.006",
            "primitives": [
                {
                    "attributes": {
                        "JOINTS_0": 10,
                        "NORMAL": 8,
                        "POSITION": 6,
                        "TEXCOORD_0": 4,
                        "WEIGHTS_0": 1
                    },
                    "indices": 0,
                    "material": 0,
                    "mode": 4
                }
            ]
        }
    ],
    "nodes": [
        {
            "children": [
                1,
                4
            ],
            "name": "Armature",
            "rotation": [
                0.0,
                0.0,
                0.0,
                1.0
            ],
            "scale": [
                2.9827871322631836,
                2.9827871322631836,
                2.9827871322631836
            ],
            "translation": [
                0.17158126831054688,
                0.15572857856750488,
                -0.12700223922729492
            ]
        },
        {
            "mesh": 0,
            "name": "BigTree.006",
            "rotation": [
                8.146033536604591e-08,
                4.3711395392165286e-08,
                -3.560745245206366e-15,
                1.0
            ],
            "scale": [
                0.3352569043636322,
                0.3352569043636322,
                0.3352569043636322
            ],
            "skin": 0,
            "translation": [
                -0.057523805648088455,
                -0.05220908299088478,
                0.042578376829624176
            ]
        },
        {
            "camera": 0,
            "name": "Camera",
            "rotation": [
                -0.09062843769788742,
                -0.8937962651252747,
                -0.2099730223417282,
                0.38578000664711
            ],
            "scale": [
                1.0,
                1.0,
                1.0
            ],
            "translation": [
                -7.481131553649902,
                5.34366512298584,
                -6.5076398849487305
            ]
        },
        {
            "name": "Lamp",
            "rotation": [
                -0.34203386306762695,
                -0.5232755541801453,
                -0.2841663062572479,
                0.7269423007965088
            ],
            "scale": [
                1.0,
                1.0,
                0.9999999403953552
            ],
            "translation": [
                -4.076245307922363,
                5.903861999511719,
                1.0054539442062378
            ]
        },
        {
            "children": [
                5
            ],
            "name": "Bone",
            "rotation": [
                0.0,
                1.0,
                0.0,
                0.0
            ],
            "scale": [
                1.0,
                1.0,
                1.0
            ],
            "translation": [
                0.0,
                0.0,
                0.0
            ]
        },
        {
            "name": "Bone.001",
            "rotation": [
                -0.0043916902504861355,
                0.7070969343185425,
                0.0043917386792600155,
                0.7070894241333008
            ],
            "scale": [
                1.0000001192092896,
                1.0000001192092896,
                1.0
            ],
            "translation": [
                0.0,
                1.0,
                0.0
            ]
        }
    ],
    "samplers": [
        {
            "magFilter": 9729,
            "minFilter": 9987,
            "name": "Texture",
            "wrapS": 10497,
            "wrapT": 10497
        }
    ],
    "scene": 0,
    "scenes": [
        {
            "extras": {
                "active_camera": 0,
                "background_color": [
                    0.05087608844041824,
                    0.05087608844041824,
                    0.05087608844041824
                ],
                "frames_per_second": 24
            },
            "name": "Scene",
            "nodes": [
                0,
                3,
                2
            ]
        }
    ],
    "skins": [
        {
            "inverseBindMatrices": 9,
            "joints": [
                4,
                5
            ],
            "name": "BigTree.006",
            "skeleton": 4
        }
    ],
    "textures": [
        {
            "name": "Texture",
            "sampler": 0,
            "source": 0
        }
    ]
}
